<?xml version="1.0" standalone="no"?>
<!DOCTYPE svg PUBLIC "-//W3C//DTD SVG 20010904//EN"
 "http://www.w3.org/TR/2001/REC-SVG-20010904/DTD/svg10.dtd">
<svg version="1.0" xmlns="http://www.w3.org/2000/svg"
 width="135.000000pt" height="135.000000pt" viewBox="0 0 135.000000 135.000000"
 preserveAspectRatio="xMidYMid meet">
<metadata>
Created by potrace 1.16, written by Peter Selinger 2001-2019
</metadata>
<g transform="translate(0.000000,135.000000) scale(0.100000,-0.100000)"
fill="#000000" stroke="none">
<path d="M502 1300 c-175 -46 -334 -174 -410 -330 -54 -110 -72 -184 -72 -295
0 -178 62 -328 185 -450 81 -80 152 -125 257 -163 66 -24 87 -26 208 -26 119
0 143 3 207 26 218 78 371 244 428 463 20 77 19 234 0 310 -46 175 -175 335
-335 413 -47 23 -112 49 -145 57 -83 21 -232 19 -323 -5z m92 -107 c-14 -31
-32 -69 -40 -85 l-15 -28 -103 0 c-98 0 -106 -2 -135 -26 l-31 -26 0 -321 c0
-177 -4 -327 -8 -333 -4 -6 -24 -13 -44 -16 -36 -4 -38 -3 -67 52 -43 80 -61
160 -61 265 0 105 17 174 62 265 42 83 151 194 235 238 53 28 181 70 220 71 8
1 3 -20 -13 -56z m250 30 c127 -37 268 -149 333 -264 92 -162 98 -390 15 -544
-26 -47 -29 -50 -67 -50 l-40 0 -6 334 -5 334 -28 23 c-27 24 -31 24 -227 24
-109 0 -199 3 -199 7 0 4 15 42 32 86 l33 79 53 -7 c30 -4 77 -13 106 -22z
m-329 -546 l0 -319 -93 -1 -92 -2 0 316 c0 174 3 319 7 323 4 4 46 5 93 4 l85
-3 0 -318z m233 -2 l2 -320 -87 2 -88 1 -3 307 c-2 224 1 311 9 322 9 10 32
13 88 11 l76 -3 3 -320z m260 313 c9 -9 12 -94 12 -320 l0 -308 -105 0 -105 0
0 313 c0 173 3 317 7 320 12 12 178 8 191 -5z m41 -751 c-196 -181 -555 -181
-755 -2 l-49 44 425 0 425 0 -46 -42z"/>
<path d="M197 959 c-98 -167 -106 -363 -21 -531 23 -46 49 -62 59 -35 3 7 4
151 3 321 l-3 308 -38 -63z"/>
<path d="M684 1169 c-14 -28 -23 -53 -21 -55 2 -3 80 -3 173 -2 l169 3 -71 37
c-61 32 -171 67 -211 68 -7 0 -24 -23 -39 -51z"/>
<path d="M1106 705 c4 -170 8 -313 11 -318 11 -18 43 18 66 75 47 118 54 253
19 373 -13 43 -56 126 -81 155 l-22 25 7 -310z"/>
<path d="M360 675 l0 -296 63 3 62 3 3 293 2 292 -65 0 -65 0 0 -295z"/>
<path d="M602 678 l3 -293 58 -3 57 -3 0 296 0 295 -60 0 -60 0 2 -292z"/>
<path d="M877 972 l-37 -3 2 -292 3 -292 73 -3 72 -3 -2 293 -3 293 -35 5
c-19 3 -52 4 -73 2z"/>
<path d="M397 251 l-79 -6 55 -33 c111 -67 148 -76 297 -76 150 0 194 11 299
77 l53 34 -183 6 c-195 7 -317 7 -442 -2z"/>
</g>
</svg>
